#File generated from solving marker data for model walk1.trc
name solved_motion
datacolumns 107
datarows 6
range 0.8750000000 0.9170000000
units unknown
enforce_loops no
enforce_constraints no
endheader

time	lower_torso_TX	lower_torso_TY	lower_torso_TZ	lower_torso_RX	lower_torso_RY	lower_torso_RZ	lumbar_roll	lumbar_yaw	lumbar_pitch	neck_roll	neck_yaw	neck_pitch	arm_add_r	arm_rot_r	arm_flex_r	elbow_flex_r	pro_sup_r	wrist_dev_r	wrist_flex_r	arm_add_l	arm_rot_l	arm_flex_l	elbow_flex_l	pro_sup_l	wrist_dev_l	wrist_flex_l	hip_add_r	hip_rot_r	hip_flex_r	ankle_flex_r	subt_angle_r	toe_angle_r	hip_add_l	hip_rot_l	hip_flex_l	knee_flex_l	ankle_flex_l	subt_angle_l	toe_angle_l	knee_flex_r	R.Shoulder_px	R.Shoulder_py	R.Shoulder_pz	R.Scapula_px	R.Scapula_py	R.Scapula_pz	L.Shoulder_px	L.Shoulder_py	L.Shoulder_pz	R.ASIS_px	R.ASIS_py	R.ASIS_pz	V.Sacral_px	V.Sacral_py	V.Sacral_pz	L.ASIS_px	L.ASIS_py	L.ASIS_pz	R.Elbow_px	R.Elbow_py	R.Elbow_pz	R.Wrist_px	R.Wrist_py	R.Wrist_pz	L.Elbow_px	L.Elbow_py	L.Elbow_pz	L.Wrist_px	L.Wrist_py	L.Wrist_pz	R.Thigh_px	R.Thigh_py	R.Thigh_pz	R.Knee_px	R.Knee_py	R.Knee_pz	R.Shank_px	R.Shank_py	R.Shank_pz	R.Ankle_px	R.Ankle_py	R.Ankle_pz	R.Heel_px	R.Heel_py	R.Heel_pz	R.Toe_px	R.Toe_py	R.Toe_pz	L.Thigh_px	L.Thigh_py	L.Thigh_pz	L.Knee_px	L.Knee_py	L.Knee_pz	L.Shank_px	L.Shank_py	L.Shank_pz	L.Ankle_px	L.Ankle_py	L.Ankle_pz	L.Heel_px	L.Heel_py	L.Heel_pz	L.Toe_px	L.Toe_py	L.Toe_pz	
0.8750000000	-0.6899929733	0.3073750452	0.7061031548	91.5141883389	-14.2256245055	6.4446076478	-5.2799754382	20.9882088190	-23.2393403990	0.0000000000	0.0000000000	0.0000000000	-41.0752001703	-10.0000000000	17.1567652940	39.4938595053	50.0000000026	0.0000000000	0.0000000000	-30.3795832422	10.0000000000	-0.9439238460	18.1042454608	50.0000000000	0.0000000000	0.0000000000	-5.9688645966	17.5405202320	30.7485463231	9.1845552708	20.0000000000	0.0000000000	4.4545117368	6.8209563811	43.5088738485	99.8163272751	30.0000000000	1.2905672204	-0.0450000000	110.3995168909	-0.6468880600	0.0994310600	1.1000942400	-0.8277912600	0.2277926200	1.1091104700	-0.7066299400	0.5471721200	1.1447117900	-0.6959788800	0.1689223600	0.7306177400	-0.8900239300	0.3600756800	0.7740965000	-0.6365150100	0.4394371300	0.7133958700	-0.6781127900	-0.0559394300	0.8799691800	-0.4586120900	-0.1219961900	0.7805796500	-0.8370522500	0.6703783000	0.9330702500	-0.8100992400	0.8222670300	0.7289404900	-0.6682276000	0.0391333700	0.4182240900	-0.6068276400	0.0980829800	0.2866052900	-0.7770651900	0.0265987100	0.2080082100	-0.9910444300	0.1075372100	0.1817181500	-1.0274873000	0.1398900500	0.2318060600	-0.9464770500	0.1597484900	0.0834394300	-0.4945842000	0.4617240300	0.3863805800	-0.4674769600	0.3733309300	0.3419150100	-0.6220837400	0.5257456700	0.1549147800	-0.7389015500	0.5010571000	0.0663627900	-0.8215234400	0.4928341700	0.0766615900	-0.6651958600	0.4256568000	0.0411664200	
0.8830000000	-0.7036301851	0.3079498544	0.7060525098	87.8192309883	-8.9243467237	5.9376801099	-1.6599863095	16.5624085665	-26.9843319109	0.0000000000	0.0000000000	0.0000000000	-41.8959209419	-10.0000000000	19.1032557088	40.9971028594	50.0000000026	0.0000000000	0.0000000000	-32.4151446370	10.0000000000	1.4746644152	18.7318298209	50.0000000000	0.0000000000	0.0000000000	-3.3704042148	10.5247879656	31.9175825753	9.7026841518	20.0000000000	0.0000000000	4.2341795399	13.7366480595	45.3478537046	100.3978958475	30.0000000000	5.3157109174	-0.0460000000	111.1135986349	-0.6375343000	0.1019968000	1.0990570100	-0.8204307300	0.2288209100	1.1086800500	-0.6981438000	0.5465835000	1.1423010300	-0.6917824700	0.1675078300	0.7310006700	-0.8849924300	0.3610285900	0.7747270500	-0.6636080300	0.4440087600	0.7044080800	-0.6733881800	-0.0574446300	0.8807429200	-0.4549246200	-0.1204548000	0.7770377200	-0.8284877300	0.6717233300	0.9312043500	-0.8004268200	0.8259732100	0.7298126800	-0.6568714000	0.0383042200	0.4195117200	-0.5955181900	0.0967812800	0.2904566000	-0.7658822600	0.0276076500	0.2093353400	-0.9765861800	0.1085877200	0.1812393500	-1.0181269500	0.1403296100	0.2325716600	-0.9317851600	0.1585709500	0.0856155500	-0.4939448900	0.4620342100	0.3850836800	-0.4692142900	0.3755822400	0.3363358500	-0.6187132600	0.5253897700	0.1549065700	-0.7416142600	0.5029975600	0.0689938100	-0.8208316700	0.4929882500	0.0777143600	-0.6651958600	0.4256568000	0.0411664200	
0.8920000000	-0.7035500833	0.2990863985	0.7072337195	86.8856646828	-8.6702438759	6.5255045011	-1.8537511694	16.1705617595	-28.6921004762	0.0000000000	0.0000000000	0.0000000000	-40.6370433894	-10.0000000000	20.5947599265	39.8995063377	50.0000000026	0.0000000000	0.0000000000	-34.2904374877	10.0000000000	1.7915585957	20.4522868843	50.0000000000	0.0000000000	0.0000000000	-0.9597275270	9.0617443309	32.6056344855	10.0218111957	16.9706910847	0.0000000000	2.5206888756	14.9923484493	44.8461690108	100.8532825427	30.0000000000	8.0127925755	-0.0470000000	111.7597737660	-0.6307278400	0.1006587400	1.0981579600	-0.8128958700	0.2286134300	1.1087498800	-0.6902722800	0.5480862400	1.1416674800	-0.6847348000	0.1679715700	0.7311568000	-0.8775664700	0.3588009600	0.7736138900	-0.6646030300	0.4347851300	0.7035900900	-0.6665174600	-0.0554155700	0.8789113200	-0.4513780200	-0.1216473800	0.7743908700	-0.8213554700	0.6725620700	0.9303272100	-0.7889470200	0.8258271500	0.7263990500	-0.6451731600	0.0375240600	0.4218851300	-0.5793438100	0.0970862600	0.2936077300	-0.7543200100	0.0292357100	0.2111527100	-0.9628264800	0.1089698000	0.1814521000	-1.0046967200	0.1422862100	0.2315856000	-0.9151848800	0.1569436300	0.0848311700	-0.4882379200	0.4614529100	0.3810422100	-0.4637492400	0.3746423600	0.3373110000	-0.6145219700	0.5238718300	0.1531039400	-0.7387276000	0.5029552300	0.0698734500	-0.8204001500	0.4934353600	0.0813771900	-0.6648681000	0.4253976100	0.0413838200	
0.9000000000	-0.6952931905	0.3004769284	0.7071816648	87.0338552444	-8.3754256649	6.3957307460	-1.8214284321	16.0411817659	-28.3579151938	0.0000000000	0.0000000000	0.0000000000	-40.3715363526	-10.0000000000	19.9176609930	40.2546206639	50.0000000026	0.0000000000	0.0000000000	-34.2652183655	10.0000000000	2.4460256282	20.6992159567	50.0000000000	0.0000000000	0.0000000000	-1.6008609317	8.7396533633	33.6913788803	10.2239260816	16.2293528458	0.0000000000	2.9314816847	14.7598715876	44.4908334782	101.0605497034	30.0000000000	7.9104106753	-0.0480000000	111.8261132043	-0.6249769300	0.1016539900	1.0977536600	-0.8036257900	0.2292178000	1.1100921600	-0.6845604200	0.5486356200	1.1428725600	-0.6745301500	0.1699974100	0.7303765300	-0.8711572900	0.3590641800	0.7733414900	-0.6569871800	0.4363719800	0.7038535800	-0.6618117100	-0.0547244300	0.8798118300	-0.4453978900	-0.1208309900	0.7729267600	-0.8131875000	0.6735866700	0.9285988200	-0.7758209200	0.8257006200	0.7271632700	-0.6343601700	0.0375982800	0.4252737100	-0.5706923200	0.0953570500	0.2985603300	-0.7395982100	0.0281265400	0.2128745700	-0.9481703500	0.1101147400	0.1795201400	-0.9903834800	0.1423371600	0.2302972700	-0.8979351800	0.1552071800	0.0839000200	-0.4872349900	0.4637012600	0.3791338800	-0.4568694500	0.3730699500	0.3353455200	-0.6125795900	0.5232760600	0.1503152500	-0.7393618200	0.5033713400	0.0722924700	-0.8182908300	0.4930538900	0.0821220700	-0.6628690200	0.4250441000	0.0412344600	
0.9080000000	-0.6883582483	0.3003867722	0.7071380523	87.1574410394	-8.6393113686	6.4632739334	-2.1235181263	16.3233765655	-28.4807756629	0.0000000000	0.0000000000	0.0000000000	-40.2384841485	-10.0000000000	19.9997383962	38.9533351390	50.0000000026	0.0000000000	0.0000000000	-34.4580465699	10.0000000000	2.6034704263	22.0282627872	50.0000000000	0.0000000000	0.0000000000	-1.8107808548	8.7472408939	35.0178165373	10.5797229524	15.9282491880	0.0000000000	2.9553874950	14.4108678464	43.8922058734	101.3458952171	30.0000000000	8.1565708950	-0.0490000000	112.1270553039	-0.6159950000	0.1035853700	1.0978181200	-0.7976749300	0.2293257000	1.1099160200	-0.6777050200	0.5502896100	1.1414870600	-0.6688800700	0.1692853100	0.7310813000	-0.8657128900	0.3586964700	0.7742900400	-0.6493693800	0.4361431300	0.7041313500	-0.6549566700	-0.0530703200	0.8778184200	-0.4401135900	-0.1230151700	0.7699539200	-0.8059364600	0.6752409100	0.9285526700	-0.7633960000	0.8248383800	0.7257940100	-0.6234783300	0.0350407900	0.4292796000	-0.5535769000	0.0941080900	0.3022313800	-0.7271101700	0.0260948500	0.2167609600	-0.9322967500	0.1086324900	0.1788987400	-0.9757990100	0.1442136500	0.2266533200	-0.8799070400	0.1544365500	0.0831725500	-0.4826826500	0.4628128700	0.3758016400	-0.4534041400	0.3742313800	0.3333074000	-0.6092931500	0.5222283300	0.1481040500	-0.7388734700	0.5028054500	0.0728333500	-0.8172496900	0.4942240300	0.0850670900	-0.6620609100	0.4247127100	0.0419437200	
0.9170000000	-0.6803131396	0.3011488600	0.7075048245	87.2199980703	-8.6093448121	6.4596972745	-2.2078477446	16.5440999926	-28.4706786588	0.0000000000	0.0000000000	0.0000000000	-40.1333067620	-10.0000000000	18.4879279998	39.6803868821	50.0000000026	0.0000000000	0.0000000000	-34.2705250789	10.0000000000	3.3855134401	21.4321457980	50.0000000000	0.0000000000	0.0000000000	-2.1400891657	8.4908123460	36.0095022211	11.3165095631	15.6772305215	0.0000000000	2.8321795087	13.9031813332	43.4783123926	101.6510150609	30.0000000000	9.2713960178	-0.0500000000	112.1732518589	-0.6050349700	0.1050670600	1.0976875000	-0.7904375000	0.2293719000	1.1109458000	-0.6710187400	0.5497476200	1.1415897200	-0.6611132800	0.1712772700	0.7315416900	-0.8586335400	0.3572610800	0.7740341200	-0.6413059700	0.4369592300	0.7046612500	-0.6520935700	-0.0539414400	0.8790481000	-0.4380031400	-0.1244286400	0.7681718800	-0.7971014400	0.6751572900	0.9270793500	-0.7536270100	0.8259880400	0.7251123700	-0.6143809200	0.0326691000	0.4343355100	-0.5405922900	0.0945673000	0.3072692600	-0.7138350200	0.0261941500	0.2202641400	-0.9178457000	0.1101718100	0.1758663300	-0.9616385500	0.1444138600	0.2235701300	-0.8627428000	0.1536069300	0.0841719200	-0.4782479200	0.4627970600	0.3758258700	-0.4436526500	0.3770495300	0.3348873000	-0.6079037500	0.5218254400	0.1473539900	-0.7388216600	0.5019289600	0.0737777400	-0.8164492800	0.4948532700	0.0865111000	-0.6617102700	0.4245875500	0.0416947800	
